<svg width="23" height="28" viewBox="0 0 23 28" fill="none" xmlns="http://www.w3.org/2000/svg">
<path d="M11.4463 5.07921V1.13235C11.4463 0.495755 10.6824 0.184532 10.2439 0.637219L4.86824 5.99873C4.58531 6.28166 4.58531 6.7202 4.86824 7.00313L10.2298 12.3646C10.6824 12.8032 11.4463 12.492 11.4463 11.8554V7.90851C16.723 7.90851 20.8962 12.7466 19.7362 18.2213C19.0713 21.4325 16.4683 24.0213 13.2712 24.6862C8.22095 25.7472 3.72238 22.2813 3.04334 17.5988C2.94432 16.9198 2.35017 16.3964 1.65699 16.3964C0.808202 16.3964 0.129171 17.1462 0.242343 17.9949C1.11942 24.2052 7.03265 28.8028 13.7239 27.5014C18.1376 26.6384 21.6884 23.0877 22.5513 18.674C23.9518 11.4168 18.4347 5.07921 11.4463 5.07921Z" fill="#222222"/>
</svg>
